<svg xmlns="http://www.w3.org/2000/svg" style="display: none;">
  <symbol id="icon-ai" viewBox="0 0 24 24">
    <path d="M12 2l2 6h6l-5 4 2 6-5-4-5 4 2-6-5-4h6z"/>
  </symbol>
  
  <symbol id="icon-ml" viewBox="0 0 24 24">
    <path d="M3 3h18v18H3V3zm16 16V5H5v14h14zM7 12h2v5H7v-5zm4-3h2v8h-2V9zm4-3h2v11h-2V6z"/>
  </symbol>
  
  <symbol id="icon-cv" viewBox="0 0 24 24">
    <path d="M11 5.5a1 1 0 1 1 2 0 1 1 0 0 1-2 0zM12 9a1 1 0 1 0 0-2 1 1 0 0 0 0 2zm0 3a1 1 0 1 0 0-2 1 1 0 0 0 0 2zm0 3a1 1 0 1 0 0-2 1 1 0 0 0 0 2zm0 3a1 1 0 1 0 0-2 1 1 0 0 0 0 2zm7-14h-4.18C14.4 1.84 13.3 1 12 1c-1.3 0-2.4.84-2.82 2H5c-.14 0-.27.01-.4.04a2.008 2.008 0 0 0-1.44 1.19c-.1.23-.16.49-.16.77v16c0 .27.06.54.16.78s.25.45.43.64c.27.27.62.48 1.01.6.13.03.26.04.4.04h14c1.1 0 2-.9 2-2V5c0-1.1-.9-2-2-2zm-7-.25c.41 0 .75.34.75.75s-.34.75-.75.75-.75-.34-.75-.75.34-.75.75-.75zM19 19H5V5h14v14z"/>
  </symbol>
  
  <symbol id="icon-nlp" viewBox="0 0 24 24">
    <path d="M20 2H4c-1.1 0-1.99.9-1.99 2L2 22l4-4h14c1.1 0 2-.9 2-2V4c0-1.1-.9-2-2-2zm-2 12H6v-2h12v2zm0-3H6V9h12v2zm0-3H6V6h12v2z"/>
  </symbol>
  
  <symbol id="icon-robot" viewBox="0 0 24 24">
    <path d="M12 2a2 2 0 0 1 2 2c0 .74-.4 1.38-1 1.72V7h5c1.1 0 2 .9 2 2v8c0 1.1-.9 2-2 2H6c-1.1 0-2-.9-2-2V9c0-1.1.9-2 2-2h5V5.72c-.6-.34-1-.98-1-1.72a2 2 0 0 1 2-2zm5 10h-2v1h2v-1zm-10 0H5v1h2v-1z"/>
  </symbol>
</svg>
